<svg xmlns="http://www.w3.org/2000/svg" viewBox="0 0 256 256" width="256" height="256">
<defs>
<linearGradient id="g5" x1="0" y1="0" x2="1" y2="1"><stop offset="0" stop-color="#FF8A65"/><stop offset="1" stop-color="#E040FB"/></linearGradient>
<radialGradient id="r5" cx="0.5" cy="0.42" r="0.6"><stop offset="0" stop-color="#FF8A65" stop-opacity="0.55"/><stop offset="1" stop-color="#E040FB" stop-opacity="0"/></radialGradient>
</defs>
<rect width="256" height="256" rx="64" fill="#0C0C0E"/>
<rect width="256" height="256" rx="64" fill="url(#r5)"/>
<rect x="2" y="2" width="252" height="252" rx="62" fill="none" stroke="url(#g5)" stroke-opacity="0.55" stroke-width="3"/>
<g fill="none" stroke="#F5F5F7" stroke-width="10" stroke-linecap="round" stroke-linejoin="round"><path d="M76 98 L84 62 L110 84 Q128 80 146 84 L172 62 L180 98 Q192 122 180 148 Q164 182 128 182 Q92 182 76 148 Q64 122 76 98z"/><g fill="#F5F5F7" stroke="none"><circle cx="102" cy="122" r="6"/><circle cx="154" cy="122" r="6"/></g><path d="M120 142 l8 6 8 -6"/><path d="M52 138 l24 4 M52 156 l24 -4 M204 138 l-24 4 M204 156 l-24 -4" opacity=".5" stroke-width="6"/></g>
</svg>